<?xml version="1.0" encoding="utf-8" ?><svg xmlns="http://www.w3.org/2000/svg" xmlns:xlink="http://www.w3.org/1999/xlink" width="1200" height="1200" viewBox="0 0 1200 1200"><path fill="#FAEFE1" d="M483.198 109.145C488.428 108.643 499.986 108.955 505.579 108.953L548.869 108.925L580.055 108.918C590.766 108.919 599.118 106.547 605.781 116.082C606.441 124.668 607.18 168.073 604.875 173.18C602.859 177.648 598.28 178.602 594.046 180.13C593.786 180.43 593.526 180.73 593.266 181.031C592.805 204.124 593.073 266.354 593.099 285.167C600.066 284.932 611.787 283.216 618.948 282.354L666.136 276.668L801.494 260.748C816.357 258.935 831.232 257.214 846.116 255.584C855.72 254.506 865.031 253.207 874.646 253.009C890.007 251.972 891.693 264.224 892.074 277.124C892.417 288.766 898.956 310.393 891.315 320.623C887.345 325.937 877.873 326.087 871.945 326.351C869.504 345.732 868.116 369.135 866.407 388.84L857.102 495.148C853.836 532.334 850.824 569.542 848.065 606.769C847.111 620.915 845.681 637.323 845.418 651.308C893.251 634.401 944.56 618.561 992.909 602.509L1098.63 567.24C1109.77 563.49 1154.42 547.028 1163.16 547.083C1175.64 552.275 1177.37 569.977 1177.12 581.82C1174.01 586.287 1171.4 588.037 1167.09 591.21C1167.25 595.067 1166.88 598.679 1166.62 602.516C1162.23 669.014 1145 738.46 1115.96 798.159C1062 909.091 967.438 992.087 872.001 1066.82C860.868 1075.54 853.928 1085.19 839.706 1090.02C836.445 1090.72 833.711 1091.03 830.369 1091.04C811.313 1091.11 792.216 1091.02 773.163 1091.02L658.479 1091.02L308.976 1091.03L184.809 1091.03C171.507 1091.03 151.072 1091.57 137.603 1090.38C133.954 1090.05 125.454 1084.38 123.109 1080.87C113.652 1066.74 105.516 1049.82 97.341 1034.95L38.2419 926.692C31.1553 922.504 22.4445 921.962 22.8033 911.424C22.9717 906.479 22.7498 901.314 22.8539 896.376C22.944 892.103 22.2228 884.932 25.3492 881.738C30.6762 879.918 39.2609 881.403 45.1206 881.646L91.1174 883.862C129.627 885.304 168.162 886.007 206.699 885.973C223.875 885.961 239.363 884.389 256.751 885.101C255.259 851.323 252.53 817.42 250.723 783.649C250.061 771.277 246.688 762.406 258.553 755.116C326.467 755.807 398.008 755.906 465.918 755.169C466.04 747.905 465.412 741.458 465.23 734.307C464.618 710.35 463.106 686.333 462.151 662.407L456.864 510.667C454.889 465.563 451.278 415.492 451.124 370.842C443.421 371.218 440.596 372.413 432.113 371.791C429.969 370.405 427.639 368.661 425.94 366.739C420.968 361.116 416.947 322.382 417.188 313.739C424.849 302.342 434.306 303.932 446.661 302.217C458.739 300.542 471.003 299.752 483.04 297.729C482.199 269.41 483.425 240.3 482.898 211.915C482.713 201.944 482.459 190.177 483.231 180.351C476.526 178.882 470.831 177.659 469.691 169.936C468.008 158.533 469.13 146.446 468.814 134.891C468.696 130.573 468.699 126.103 469.064 121.84C470.012 110.754 473.791 110.756 483.198 109.145ZM578.611 843.803C596.623 839.181 614.978 835.59 632.945 830.728C635.143 830.134 637.898 829.533 639.982 828.765C657.242 824.313 692.94 816.715 704.875 805.539L720.029 616.661L725.042 555.369C727.645 521.864 730.672 500.029 707.689 472.286C693.57 455.242 662.183 439.639 640.185 444.351C617.243 447.854 597.615 457.808 583.681 476.875C575.632 488.072 570.502 501.1 568.757 514.78C567.325 526.495 568.65 539.04 568.967 550.783L571.037 613.767L578.611 843.803ZM1069.63 728.498C1093.33 725.64 1110.26 704.153 1107.49 680.44C1104.72 656.727 1083.3 639.718 1059.58 642.397C1035.73 645.09 1018.61 666.653 1021.39 690.493C1024.17 714.333 1045.8 731.372 1069.63 728.498Z"/></svg>